# AST/ASF file generated using VICON BodyLanguage
# -----------------------------------------------
:version 1.10
:name VICON
:units
  mass 1.0
  length 0.45
  angle deg
:documentation
   .ast/.asf automatically generated from VICON data using
   VICON BodyBuilder and BodyLanguage model FoxedUp or BRILLIANT.MOD
:root
   order TX TY TZ RX RY RZ
   axis XYZ
   position 0 0 0  
   orientation 0 0 0 
:bonedata
  begin
     id 1 
     name lhipjoint
     direction 0.567149 -0.783011 0.255413 
     length 2.28399 
     axis 0 0 0  XYZ
  end
  begin
     id 2 
     name lfemur
     direction 0.34202 -0.939693 0  
     length 7.34031  
     axis 0 0 20  XYZ
    dof rx ry rz
    limits (-160.0 20.0)
           (-70.0 70.0)
           (-60.0 70.0)
  end
  begin
     id 3 
     name ltibia
     direction 0.34202 -0.939693 0   
     length 6.9833   
     axis 0 0 20   XYZ
    dof rx
    limits (-10.0 170.0)
  end
  begin
     id 4 
     name lfoot
     direction 0.136498 -0.375025 0.91691   
     length 2.33665   
     axis -90 7.62852e-016 20   XYZ
    dof rx rz
    limits (-45.0 90.0)
           (-70.0 20.0)
  end
  begin
     id 5 
     name ltoes
     direction 1.5367e-011 -4.21617e-011 1   
     length 1.15039   
     axis -90 7.62852e-016 20   XYZ
    dof rx
    limits (-90.0 20.0)
  end
  begin
     id 6 
     name rhipjoint
     direction -0.602854 -0.758518 0.247423   
     length 2.35775  
     axis 0 0 0  XYZ 
  end
  begin
     id 7 
     name rfemur
     direction -0.34202 -0.939693 0   
     length 7.43932   
     axis 0 0 -20   XYZ
    dof rx ry rz
    limits (-160.0 20.0)
           (-70.0 70.0)
           (-70.0 60.0)
  end
  begin
     id 8 
     name rtibia
     direction -0.34202 -0.939693 0   
     length 7.11893   
     axis 0 0 -20   XYZ
    dof rx
    limits (-10.0 170.0)
 end
 begin
     id 9 
     name rfoot
     direction -0.131771 -0.362037 0.922803   
     length 2.53019  
     axis -90 -7.62852e-016 -20   XYZ
    dof rx rz
    limits (-45.0 90.0)
           (-20.0 70.0)
  end
  begin
     id 10 
     name rtoes
     direction -1.53733e-011 -4.21932e-011 1   
     length 1.24596   
     axis -90 -7.62852e-016 -20   XYZ
    dof rx
    limits (-90.0 20.0)
  end
  begin
     id 11 
     name lowerback
     direction 0.0235427 0.999023 -0.0374125   
     length 2.21768   
     axis 0 0 0   XYZ
    dof rx ry rz
    limits (-20.0 45.0)
           (-30.0 30.0)
           (-30.0 30.0)
  end
  begin
     id 12 
     name upperback
     direction 0.0302156 0.996818 -0.073759   
     length 2.20352   
     axis 0 0 0   XYZ
    dof rx ry rz
    limits (-20.0 45.0)
           (-30.0 30.0)
           (-30.0 30.0)
  end
  begin
     id 13 
     name thorax
     direction 0.0187169 0.998235 -0.0563532   
     length 2.22103   
     axis 0 0 0   XYZ
    dof rx ry rz
    limits (-20.0 45.0)
           (-30.0 30.0)
           (-30.0 30.0)
  end
  begin
     id 14 
     name lowerneck
     direction -0.119528 0.987423 0.103481   
     length 1.72948   
     axis 0 0 0   XYZ
    dof rx ry rz
    limits (-20.0 45.0)
           (-30.0 30.0)
           (-30.0 30.0)
  end
  begin
     id 15 
     name upperneck
     direction 0.248049 0.963095 -0.104496   
     length 1.74979   
     axis 0 0 0   XYZ
    dof rx ry rz
    limits (-20.0 45.0)
           (-30.0 30.0)
           (-30.0 30.0)
  end
  begin
     id 16
     name head
     direction 0.0903589 0.994284 -0.056876  
     length 1.78268  
     axis 0 0 0   XYZ
    dof rx ry rz
    limits (-20.0 45.0)
           (-30.0 30.0)
           (-30.0 30.0)
  end
  begin
     id 17 
     name lclavicle
     direction 0.946008 0.242039 -0.215608  
     length 3.80783  
     axis 0 0 0   XYZ
    dof ry rz
    limits (-20.0 10.0)
           (0.0 20.0)
  end
  begin
     id 18 
     name lhumerus
     direction 1 -4.48991e-011 -2.25695e-027   
     length 4.83125   
     axis 180 -30 -90   XYZ
    dof rx ry rz
    limits (-60.0 90.0)
           (-90.0 90.0)
           (-90.0 90.0)
  end
  begin
     id 19
     name lradius
     direction 0.999991 0.00366712 -0.00211721   
     length 3.00391   
     axis 180 -30 -90   XYZ
    dof rx
    limits (-10.0 170.0)
  end
  begin
     id 20
     name lwrist
     direction 0.999991 0.00393016 -0.00141978   
     length 1.50195   
     axis -1.00488e-014 90 90   XYZ
    dof ry
    limits (-180.0 0.0)
 end
  begin
     id 21 
     name lhand
     direction 1 -4.49123e-011 2.72098e-026   
     length 1.2717   
     axis -1.73687e-014 90 90   XYZ
    dof rx rz
    limits (-90.0 90.0)
           (-45.0 45.0)
  end
  begin
     id 22 
     name lfingers
     direction 1 -4.48678e-011 5.4479e-026   
     length 1.02528   
     axis -3.47372e-014 90 90   XYZ
    dof rx
    limits (0.0 90.0)
  end
  begin
     id 23
     name lthumb
     direction 0.707107 -6.34851e-011 0.707107   
     length 1.4721   
     axis -90 45 -1.62303e-014   XYZ
    dof rx rz
    limits (-45.0 45.0)
           (-45.0 45.0)
  end
  begin
     id 24 
     name rclavicle
     direction -0.981723 0.189447 -0.0181673   
     length 3.74989  
     axis 0 0 0   XYZ 
    dof ry rz
    limits (-10.0 20.0)
           (-20.0 0.0)
  end
  begin
     id 25 
     name rhumerus
     direction -1 -4.48985e-011 2.38206e-027  
     length 4.61118   
     axis 180 30 90   XYZ
    dof rx ry rz
    limits (-90.0 60.0)
           (-90.0 90.0)
           (-90.0 90.0)
  end
  begin
     id 26 
     name rradius
     direction -1 -4.48977e-011 7.41019e-027   
     length 2.91491   
     axis 180 30 90   XYZ
    dof rx
    limits (-10.0 170.0)
  end
  begin
     id 27 
     name rwrist
     direction -1 -4.48549e-011 1.3624e-026   
     length 1.45745   
     axis -1.00488e-014 -90 -90   XYZ
    dof ry
    limits (-180.0 0.0)
  end
  begin
     id 28
     name rhand
     direction -1 -4.49107e-011 2.72109e-026   
     length 1.30769   
     axis -1.73687e-014 -90 -90   XYZ
    dof rx rz
    limits (-90.0 90.0)
           (-45.0 45.0)
  end
  begin
     id 29
     name rfingers
     direction -1 -4.48919e-011 5.44468e-026   
     length 1.05429   
     axis -3.47372e-014 -90 -90   XYZ
    dof rx
    limits (0.0 90.0)
  end
  begin
     id 30
     name rthumb
     direction -0.707107 -6.35315e-011 0.707107   
     length 1.51376   
     axis -90 -45 1.62303e-014   XYZ
    dof rx rz
    limits (-45.0 45.0)
           (-45.0 45.0)
  end
:hierarchy
  begin
    root lhipjoint rhipjoint lowerback
    lhipjoint lfemur
    lfemur ltibia
    ltibia lfoot
    lfoot ltoes
    rhipjoint rfemur
    rfemur rtibia
    rtibia rfoot
    rfoot rtoes
    lowerback upperback
    upperback thorax
    thorax lowerneck lclavicle rclavicle
    lowerneck upperneck
    upperneck head
    lclavicle lhumerus
    lhumerus lradius
    lradius lwrist
    lwrist lhand lthumb
    lhand lfingers
    rclavicle rhumerus
    rhumerus rradius
    rradius rwrist
    rwrist rhand rthumb
    rhand rfingers
  end

#!OML:ASF X:\für Bonn\!DataBase\2005_08_11_Bastian_Final\c3d\Bastian.ASF
:FULLY-SPECIFIED
:DEGREES
17
root -28.1508 16.7678 24.4354 358.355 -225.64 6.15319
lowerback 8.50959 -3.36092 -0.542497
upperback 8.00387 -3.96258 0.940012
thorax 3.66611 -1.80188 1.49136
lowerneck -8.40472 -5.11133 -5.36874
upperneck 3.65785 -6.90396 12.6566
head 3.11382 -2.97317 4.34613
rclavicle -6.58971e-014 1.59028e-014
rhumerus -40.5047 -3.73338 -84.9602
rradius 28.7009
rwrist -8.86646
rhand -18.217 3.5988
rfingers 7.12502
rthumb 8.06088 -26.2275
lclavicle -6.58971e-014 1.59028e-014
lhumerus -21.87 -13.1177 88.1651
lradius 37.0332
lwrist 50.5711
lhand -14.1481 -11.8413
lfingers 7.12502
lthumb 11.9863 17.7955
rfemur -17.9897 -13.8661 26.8145
rtibia 49.886
rfoot -15.2577 -8.57161
rtoes 26.2967
lfemur 11.058 7.32469 -14.0002
ltibia 30.7579
lfoot -28.5279 4.43392
ltoes -17.8686
18
root -28.0955 16.7595 24.4049 358.374 -226.078 6.20415
lowerback 8.54265 -3.40512 -0.559048
upperback 7.98666 -4.02611 0.933705
thorax 3.63258 -1.83599 1.49931
lowerneck -8.58531 -4.923 -5.36791
upperneck 3.76267 -6.64784 12.4962
head 3.14478 -2.84564 4.3098
rclavicle 7.91163e-014 -1.03368e-014
rhumerus -40.6443 -3.9962 -84.8057
rradius 28.7025
rwrist -8.78794
rhand -18.4721 3.74858
rfingers 7.12502
rthumb 7.81466 -26.087
lclavicle 7.91163e-014 -1.03368e-014
lhumerus -21.5857 -13.102 88.1843
lradius 37.8421
lwrist 50.7426
lhand -13.8051 -11.7457
lfingers 7.12502
lthumb 12.3171 17.8715
rfemur -17.7175 -13.316 26.9275
rtibia 49.8647
rfoot -15.1356 -8.60571
rtoes 26.6573
lfemur 11.1961 8.11376 -13.6658
ltibia 31.045
lfoot -28.2941 4.52833
ltoes -20.2751
19
root -28.0387 16.7517 24.3743 358.42 -226.526 6.28986
lowerback 8.5574 -3.45035 -0.567498
upperback 7.9787 -4.09031 0.947056
thorax 3.61992 -1.87038 1.52187
lowerneck -8.79077 -4.73455 -5.41402
upperneck 3.89327 -6.3884 12.329
head 3.18883 -2.71675 4.27898
rclavicle -2.8128e-014 1.35174e-014
rhumerus -40.7746 -4.2719 -84.5774
rradius 28.7744
rwrist -8.6189
rhand -18.6895 3.83605
rfingers 7.12502
rthumb 7.60481 -26.0072
lclavicle -2.8128e-014 1.35174e-014
lhumerus -21.2761 -12.9707 88.2237
lradius 38.544
lwrist 50.6629
lhand -13.5151 -11.7237
lfingers 7.12502
lthumb 12.5967 17.8765
rfemur -17.4414 -12.7577 27.0677
rtibia 49.8578
rfoot -15.023 -8.66875
rtoes 26.9999
lfemur 11.248 8.74287 -13.3588
ltibia 31.5249
lfoot -28.0891 4.69189
ltoes -22.2682
20
root -27.9818 16.7443 24.3433 358.407 -226.979 6.34172
lowerback 8.61608 -3.48428 -0.571859
upperback 7.96934 -4.13782 0.931603
thorax 3.57848 -1.895 1.51424
lowerneck -8.96501 -4.55186 -5.44697
upperneck 4.01439 -6.13913 12.2077
head 3.22751 -2.59172 4.26038
rclavicle 6.7388e-014 1.59028e-015
rhumerus -40.9518 -4.53926 -84.3734
rradius 28.9455
rwrist -8.60241
rhand -18.8892 3.88838
rfingers 7.12502
rthumb 7.41211 -25.9618
lclavicle 6.7388e-014 1.59028e-015
lhumerus -21.0597 -12.8791 88.2486
lradius 39.3289
lwrist 50.4819
lhand -13.3249 -11.7538
lfingers 7.12502
lthumb 12.78 17.835
rfemur -17.1075 -12.2493 27.1634
rtibia 49.8318
rfoot -14.9391 -8.71723
rtoes 27.1921
lfemur 11.2751 9.26997 -13.1158
ltibia 32.1343
lfoot -27.839 4.93452
ltoes -24.2913
21
root -27.9256 16.7279 24.3136 358.419 -227.426 6.42679
lowerback 8.63623 -3.51392 -0.550432
upperback 7.98251 -4.17692 0.915478
thorax 3.57973 -1.91372 1.48839
lowerneck -9.10894 -4.37179 -5.44765
upperneck 4.0865 -5.89062 12.0471
head 3.24448 -2.47093 4.22513
rclavicle -2.31584e-014 7.95139e-015
rhumerus -41.0944 -4.98165 -84.1
rradius 29.1717
rwrist -8.48882
rhand -19.0478 3.89306
rfingers 7.12502
rthumb 7.25898 -25.9624
lclavicle -2.31584e-014 7.95139e-015
lhumerus -20.9001 -12.8032 88.2738
lradius 40.2091
lwrist 50.1012
lhand -13.2247 -11.7401
lfingers 7.12502
lthumb 12.8766 17.8426
rfemur -16.7968 -11.7861 27.2854
rtibia 49.8065
rfoot -14.8662 -8.743
rtoes 27.3136
lfemur 11.217 9.77872 -12.8413
ltibia 32.9123
lfoot -27.4773 5.17467
ltoes -26.2968
22
root -27.8675 16.725 24.2822 358.376 -227.876 6.4515
lowerback 8.6871 -3.54723 -0.58758
upperback 7.98882 -4.22415 0.908106
thorax 3.56245 -1.9395 1.50645
lowerneck -9.28356 -4.1808 -5.4897
upperneck 4.19725 -5.62532 11.882
head 3.27793 -2.34139 4.19598
rclavicle -7.71285e-014 1.74931e-014
rhumerus -41.2186 -5.36244 -83.7856
rradius 29.4465
rwrist -8.43864
rhand -19.1666 3.839
rfingers 7.12502
rthumb 7.14431 -26.0204
lclavicle -7.71285e-014 1.74931e-014
lhumerus -20.7476 -12.6372 88.3211
lradius 41.0306
lwrist 49.5668
lhand -13.1441 -11.7594
lfingers 7.12502
lthumb 12.9543 17.8185
rfemur -16.4181 -11.395 27.3472
rtibia 49.7219
rfoot -14.8259 -8.72195
rtoes 27.3034
lfemur 11.0966 10.1911 -12.6454
ltibia 33.8296
lfoot -27.0132 5.44288
ltoes -28.3148
23
root -27.8092 16.7241 24.2497 358.39 -228.348 6.53766
lowerback 8.72546 -3.56933 -0.563218
upperback 7.98307 -4.25453 0.900678
thorax 3.53376 -1.95442 1.48923
lowerneck -9.3765 -3.9946 -5.48883
upperneck 4.26878 -5.36832 11.6938
head 3.28535 -2.22005 4.15341
rclavicle -1.88845e-015 -1.86858e-014
rhumerus -41.3812 -5.78595 -83.4626
rradius 29.8211
rwrist -8.37807
rhand -19.2585 3.64724
rfingers 7.12502
rthumb 7.05566 -26.2152
lclavicle -1.88845e-015 -1.86858e-014
lhumerus -20.6282 -12.4188 88.3714
lradius 41.8329
lwrist 48.8213
lhand -13.1003 -11.8055
lfingers 7.12502
lthumb 12.9965 17.7696
rfemur -16.0211 -10.9849 27.4448
rtibia 49.586
rfoot -14.8473 -8.6912
rtoes 27.3182
lfemur 10.857 10.5979 -12.417
ltibia 34.9551
lfoot -26.4276 5.80028
ltoes -30.5497
24
root -27.7526 16.7245 24.2173 358.328 -228.791 6.56291
lowerback 8.8022 -3.59182 -0.545393
upperback 7.99738 -4.2822 0.85459
thorax 3.50252 -1.96611 1.43734
lowerneck -9.51174 -3.81016 -5.45326
upperneck 4.35678 -5.11793 11.5215
head 3.30546 -2.09848 4.10906
rclavicle -2.54444e-014 1.15295e-014
rhumerus -41.477 -6.40258 -83.0982
rradius 30.1551
rwrist -8.2613
rhand -19.3187 3.53752
rfingers 7.12502
rthumb 6.99748 -26.3268
lclavicle -2.54444e-014 1.15295e-014
lhumerus -20.4773 -12.2383 88.3825
lradius 42.608
lwrist 48.0327
lhand -12.9372 -11.8402
lfingers 7.12502
lthumb 13.1537 17.7249
rfemur -15.5532 -10.6718 27.481
rtibia 49.3671
rfoot -14.8401 -8.6115
rtoes 27.1165
lfemur 10.5487 10.9509 -12.239
ltibia 36.2612
lfoot -25.6847 6.149
ltoes -32.932
25
root -27.6944 16.73 24.1838 358.293 -229.248 6.66326
lowerback 8.90815 -3.60959 -0.494692
upperback 8.01088 -4.30105 0.838389
thorax 3.45393 -1.97221 1.39953
lowerneck -9.57456 -3.63172 -5.45097
upperneck 4.40441 -4.87112 11.3587
head 3.30343 -1.98251 4.07385
rclavicle -1.42131e-014 6.75868e-015
rhumerus -41.5889 -7.01708 -82.6843
rradius 30.5329
rwrist -8.04693
rhand -19.4205 3.37741
rfingers 7.12502
rthumb 6.89921 -26.4902
lclavicle -1.42131e-014 6.75868e-015
lhumerus -20.3593 -11.9272 88.4191
lradius 43.3874
lwrist 47.1125
lhand -12.6819 -11.8737
lfingers 7.12502
lthumb 13.3998 17.6754
rfemur -15.0085 -10.3346 27.5608
rtibia 49.0785
rfoot -14.895 -8.5328
rtoes 26.9542
lfemur 10.1396 11.2795 -12.0023
ltibia 37.8379
lfoot -24.8771 6.42939
ltoes -35.6282
26
root -27.6345 16.7384 24.1492 358.125 -229.708 6.68842
lowerback 9.07412 -3.62647 -0.507883
upperback 8.05432 -4.31766 0.806517
thorax 3.40804 -1.9781 1.38357
lowerneck -9.66702 -3.44621 -5.42838
upperneck 4.4655 -4.61509 11.1553
head 3.30833 -1.86251 4.02293
rclavicle -3.08116e-014 1.63003e-014
rhumerus -41.682 -7.58924 -82.2963
rradius 30.974
rwrist -7.86229
rhand -19.5898 3.19779
rfingers 7.12502
rthumb 6.7358 -26.6751
lclavicle -3.08116e-014 1.63003e-014
lhumerus -20.2248 -11.4819 88.4572
lradius 44.1464
lwrist 46.1316
lhand -12.3063 -11.9098
lfingers 7.12502
lthumb 13.7618 17.615
rfemur -14.332 -10.0377 27.5635
rtibia 48.7258
rfoot -14.9396 -8.43891
rtoes 26.6238
lfemur 9.68867 11.6546 -11.76
ltibia 39.679
lfoot -23.9837 6.52451
ltoes -38.0746
27
root -27.5739 16.7481 24.1131 357.896 -230.176 6.71718
lowerback 9.30483 -3.63218 -0.51445
upperback 8.10915 -4.31589 0.769581
thorax 3.33742 -1.9731 1.36132
lowerneck -9.73331 -3.26218 -5.376
upperneck 4.53419 -4.36536 10.9443
head 3.31151 -1.74602 3.96453
rclavicle -2.48481e-015 -8.34896e-015
rhumerus -41.808 -8.11223 -81.9059
rradius 31.4737
rwrist -7.60318
rhand -19.8106 3.06748
rfingers 7.12502
rthumb 6.52263 -26.8121
lclavicle -2.48481e-015 -8.34896e-015
lhumerus -20.1114 -10.9747 88.5049
lradius 44.9321
lwrist 45.1304
lhand -11.8534 -11.907
lfingers 7.12502
lthumb 14.1983 17.5878
rfemur -13.5433 -9.7398 27.5465
rtibia 48.297
rfoot -14.9892 -8.31864
rtoes 26.2581
lfemur 9.18066 12.1387 -11.4062
ltibia 41.7331
lfoot -22.9609 6.32335
ltoes -40.1975
28
root -27.5121 16.7606 24.0766 357.625 -230.667 6.71447
lowerback 9.5496 -3.62171 -0.544187
upperback 8.17353 -4.29277 0.71877
thorax 3.26953 -1.95761 1.33679
lowerneck -9.80699 -3.08252 -5.28064
upperneck 4.59903 -4.12464 10.7132
head 3.31485 -1.63386 3.89215
rclavicle -7.20594e-014 1.51076e-014
rhumerus -41.929 -8.45215 -81.6333
rradius 32.0989
rwrist -7.47755
rhand -20.1923 2.90918
rfingers 7.12502
rthumb 6.15416 -26.9814
lclavicle -7.20594e-014 1.51076e-014
lhumerus -20.0167 -10.5617 88.5568
lradius 45.7637
lwrist 44.3506
lhand -11.4139 -11.9812
lfingers 7.12502
lthumb 14.6218 17.4833
rfemur -12.7031 -9.47443 27.4995
rtibia 47.8171
rfoot -15.0479 -8.16262
rtoes 25.9185
lfemur 8.52862 12.5452 -11.055
ltibia 43.9984
lfoot -21.7729 5.9282
ltoes -41.0702
29
root -27.4489 16.7804 24.0378 357.401 -231.142 6.7459
lowerback 9.77279 -3.61378 -0.522896
upperback 8.23811 -4.27015 0.657725
thorax 3.20894 -1.93984 1.27202
lowerneck -9.88775 -2.91618 -5.16092
upperneck 4.6627 -3.90388 10.4721
head 3.32077 -1.53137 3.8113
rclavicle 2.38542e-015 5.56597e-015
rhumerus -42.0535 -8.83277 -81.3398
rradius 32.7585
rwrist -7.20218
rhand -20.6327 2.86947
rfingers 7.12502
rthumb 5.72893 -27.0331
lclavicle 2.38542e-015 5.56597e-015
lhumerus -19.9222 -10.2535 88.5765
lradius 46.6649
lwrist 43.8145
lhand -11.0436 -12.0036
lfingers 7.12502
lthumb 14.9785 17.4347
rfemur -11.8461 -9.25222 27.4673
rtibia 47.2836
rfoot -15.0747 -7.99603
rtoes 25.3959
lfemur 7.73487 12.8811 -10.6852
ltibia 46.4161
lfoot -20.338 5.59796
ltoes -40.9027
30
root -27.3862 16.7949 23.9993 357.226 -231.632 6.81549
lowerback 10.0005 -3.60094 -0.507692
upperback 8.28103 -4.24369 0.63695
thorax 3.12684 -1.92219 1.25272
lowerneck -9.96483 -2.73664 -5.06712
upperneck 4.74826 -3.66278 10.2033
head 3.33167 -1.42088 3.72751
rclavicle -5.73494e-014 2.0276e-014
rhumerus -42.1762 -9.11362 -80.9964
rradius 33.4758
rwrist -6.82675
rhand -21.1519 2.95851
rfingers 7.12502
rthumb 5.22766 -26.957
lclavicle -5.73494e-014 2.0276e-014
lhumerus -19.8833 -9.96412 88.6492
lradius 47.6171
lwrist 43.423
lhand -10.8097 -12.0304
lfingers 7.12502
lthumb 15.2038 17.391
rfemur -11.011 -9.09961 27.4442
rtibia 46.7335
rfoot -15.1053 -7.729
rtoes 25.0006
lfemur 6.80486 13.2393 -10.2788
ltibia 49.0107
lfoot -18.5325 5.38508
ltoes -40.301
31
root -27.3234 16.8126 23.9602 357.055 -232.112 6.84783
lowerback 10.1948 -3.57952 -0.481935
upperback 8.3234 -4.20584 0.579932
thorax 3.05846 -1.8978 1.18721
lowerneck -10.0542 -2.5711 -4.91452
upperneck 4.82391 -3.44672 9.94689
head 3.34386 -1.32042 3.63623
rclavicle -2.38542e-014 5.56597e-015
rhumerus -42.2667 -9.43219 -80.6674
rradius 34.2426
rwrist -6.40147
rhand -21.7156 3.09053
rfingers 7.12502
rthumb 4.68339 -26.8377
lclavicle -2.38542e-014 5.56597e-015
lhumerus -19.8488 -9.65335 88.675
lradius 48.6399
lwrist 43.1376
lhand -10.6581 -11.9958
lfingers 7.12502
lthumb 15.3499 17.4144
rfemur -10.2011 -8.99766 27.3845
rtibia 46.1594
rfoot -15.1185 -7.41831
rtoes 24.5635
lfemur 5.7189 13.3237 -10.0564
ltibia 51.7331
lfoot -16.4722 5.41704
ltoes -39.0034
